<svg xmlns="http://www.w3.org/2000/svg" width="124" height="19" fill="none" xmlns:v="https://vecta.io/nano"><path d="M111.379 17.833c.991.434 2.067.644 3.149.615a6.35 6.35 0 0 0 3.557-.956c.612-.425 1.114-.99 1.463-1.648s.535-1.391.543-2.136c0-1.823-.663-3.238-3.437-5.355l-.663-.497c-2.259-1.707-2.874-2.527-2.874-3.83-.001-.37.075-.736.223-1.074a2.64 2.64 0 0 1 .641-.891c.273-.249.596-.438.947-.554a2.64 2.64 0 0 1 1.09-.121c2.168 0 2.8.956 2.942 1.207.16.361.264.745.308 1.138.022.182.045.296.188.296.119 0 .165-.159.165-.524l.097-2.412c0-.114-.045-.159-.233-.159a4 4 0 0 1-.829-.114 9.4 9.4 0 0 0-2.191-.228c-2.994 0-4.878 1.658-4.878 4.103 0 1.548.564 2.964 3.062 4.945l1.059.838c2.026 1.616 2.708 2.533 2.708 4.103-.007.425-.103.844-.279 1.231a3.12 3.12 0 0 1-.746 1.017c-.316.284-.687.501-1.09.636a3.1 3.1 0 0 1-1.253.149c-1.575 0-3.131-.637-3.481-2.32a4.03 4.03 0 0 1-.068-.842c0-.182-.023-.249-.166-.249-.119 0-.166.114-.188.364l-.119 2.412c0 .609.028.7.353.859v-.003zm-100.7-7.528c.119 0 .119-.068.091-.159L8.532 3.994c-.119-.341-.234-.341-.353 0l-2.072 6.152c-.046.114 0 .159.068.159h4.503zM8.226 1.188c.284-.751.375-.888.518-.888s.234.114.518.82l5.486 13.742c.848 2.025 1.531 2.39 2.025 2.527a3.14 3.14 0 0 0 .945.137c.143 0 .234.022.234.137 0 .137-.21.182-.472.182-.353 0-2.072 0-3.699-.046-.449-.022-.705-.022-.705-.159 0-.091.068-.137.166-.159.143-.046.284-.249.143-.615l-2.191-5.605c-.015-.043-.044-.079-.082-.104s-.083-.036-.128-.033H5.916a.24.24 0 0 0-.234.182l-1.409 4.034c-.195.486-.307 1.002-.331 1.525 0 .455.497.663.893.663h.235c.166 0 .234.046.234.137 0 .137-.143.182-.353.182-.564 0-1.575-.068-1.838-.068s-1.554.068-2.663.068c-.307 0-.449-.046-.449-.182 0-.091.097-.137.211-.137.166 0 .497-.022.683-.046 1.077-.137 1.554-1.001 1.981-2.14L8.226 1.188zm18.751 8.024c-.002.057.013.113.042.161s.072.088.124.112c.795.275 1.635.399 2.476.364.618.034 1.232-.117 1.764-.433.829-.546 1.434-1.775 1.434-3.511 0-2.851-1.554-4.558-4.074-4.558a7.32 7.32 0 0 0-1.575.137c-.057.018-.107.055-.141.105s-.051.109-.048.169v7.459l-.002-.004zm-1.89-1.989l-.046-4.922c-.046-.774-.234-1.138-1.013-1.298a4.53 4.53 0 0 0-.802-.068c-.097 0-.188-.046-.188-.137 0-.137.119-.182.375-.182l2.663.068 2.777-.068a7.44 7.44 0 0 1 4.31 1.004 3.96 3.96 0 0 1 1.622 3.101c0 1.684-.728 3.375-2.851 5.263l4.9 5.833a4.92 4.92 0 0 0 2.874 1.639c.302.047.608.07.914.069.119 0 .211.068.211.137 0 .137-.142.182-.564.182h-1.673a4.94 4.94 0 0 1-2.521-.433c-1.013-.524-1.838-1.639-3.181-3.351l-2.569-3.375c-.038-.044-.085-.08-.138-.103a.39.39 0 0 0-.169-.034l-2.901-.046c-.119 0-.166.068-.166.182v.546l.119 4.945c.068.663.21 1.16.916 1.252.332.046.848.091 1.058.091.143 0 .188.068.188.137 0 .114-.119.182-.375.182-1.298 0-2.777-.068-2.896-.068l-2.214.068c-.262 0-.375-.046-.375-.182 0-.068.046-.137.188-.137a3.74 3.74 0 0 0 .705-.091c.472-.091.592-.592.683-1.252.119-.956.119-2.754.119-4.945V7.226l.019-.002zm35.754 0l.046-4.922c.046-.796.234-1.183.871-1.298a3.6 3.6 0 0 1 .592-.068c.097 0 .188-.046.188-.137 0-.137-.119-.182-.375-.182l-2.311.068S58.253.617 57.189.617c-.262 0-.375.046-.375.182 0 .091.097.137.188.137a4.58 4.58 0 0 1 .802.068c.774.159.967.524 1.013 1.298.046.728.046 1.366.046 4.922v.478c0 .114-.068.137-.142.137h-9.988c-.068 0-.142-.022-.142-.137v-.478l.046-4.922c.046-.796.234-1.183.871-1.298a3.68 3.68 0 0 1 .586-.068c.097 0 .188-.046.188-.137 0-.137-.119-.182-.375-.182l-2.311.068S45.989.617 44.93.617c-.256 0-.375.046-.375.182 0 .091.097.137.188.137a4.58 4.58 0 0 1 .802.068c.78.159.967.524 1.013 1.298.046.728.046 1.366.046 4.922v4.014l-.119 4.945c-.097.663-.21 1.16-.683 1.252a3.75 3.75 0 0 1-.705.091c-.143 0-.188.068-.188.137 0 .137.119.182.375.182l2.311-.068s1.599.068 2.896.068c.256 0 .376-.068.376-.182 0-.068-.046-.137-.188-.137-.21 0-.728-.046-1.058-.091-.705-.091-.848-.592-.916-1.252-.119-.956-.119-2.76-.119-4.945v-2.39c0-.114.068-.137.142-.137h9.987c.018-.001.037.002.054.008s.033.016.047.029.024.028.031.045.011.035.011.054v2.39l-.119 4.945c-.097.663-.21 1.16-.683 1.252a3.75 3.75 0 0 1-.705.091c-.143 0-.188.068-.188.137 0 .137.119.182.375.182l2.311-.068s1.599.068 2.901.068c.262 0 .375-.068.375-.182 0-.068-.046-.137-.188-.137-.21 0-.728-.046-1.058-.091-.705-.091-.848-.592-.916-1.252-.119-.956-.119-2.76-.119-4.945V7.226v-.002zm17.26 3.079c.119 0 .119-.068.097-.159L75.96 3.991c-.119-.341-.234-.341-.353 0l-2.072 6.152c-.046.114 0 .159.068.159h4.498zm-2.447-9.116c.284-.751.375-.888.518-.888s.234.114.518.82l5.486 13.742c.848 2.025 1.531 2.39 2.026 2.527.306.093.625.14.945.137.142 0 .234.022.234.137 0 .137-.211.182-.472.182-.353 0-2.072 0-3.699-.046-.449-.022-.705-.022-.705-.159 0-.091.068-.137.166-.159.142-.045.284-.249.142-.615l-2.191-5.605a.2.2 0 0 0-.21-.137h-5.064a.24.24 0 0 0-.148.051c-.042.033-.073.079-.086.131l-1.409 4.034c-.195.486-.307 1.002-.332 1.525 0 .455.497.663.893.663h.234c.166 0 .234.046.234.137 0 .137-.143.182-.353.182-.563 0-1.575-.068-1.838-.068s-1.554.068-2.663.068c-.307 0-.449-.046-.449-.182 0-.091.097-.137.21-.137a7.16 7.16 0 0 0 .683-.046c1.077-.137 1.554-1.001 1.981-2.14l5.351-14.156zm14.55 9.365c0 3.329.893 4.922 2.049 5.992 1.375 1.098 3.095 1.671 4.854 1.616 1.77.068 3.501-.533 4.848-1.684 1.884-1.616 2.168-4.353 2.168-6.812V7.226l.045-4.922c.046-.796.234-1.16.872-1.298a3.61 3.61 0 0 1 .585-.068c.097 0 .189-.046.189-.137 0-.137-.12-.182-.376-.182l-1.981.068c-.142 0-1.439-.068-2.497-.068-.257 0-.376.046-.376.182 0 .091.091.137.188.137a4.57 4.57 0 0 1 .802.068c.78.159.968.524 1.013 1.298.046.728.046 1.366.046 4.922v2.851c0 2.345-.284 4.285-1.366 5.583-.469.515-1.04.927-1.677 1.209a5.02 5.02 0 0 1-2.022.43c-.647.048-1.297-.039-1.909-.254s-1.173-.555-1.648-.998c-1.013-.933-1.764-2.344-1.764-5.628V7.226l.046-4.922c.046-.796.234-1.207.871-1.298.195-.039.393-.061.592-.068.091 0 .188-.046.188-.137 0-.137-.119-.182-.375-.182l-2.333.068s-1.65-.068-2.708-.068c-.262 0-.375.046-.375.182 0 .091.097.137.188.137a4.58 4.58 0 0 1 .802.068c.78.159.967.524 1.013 1.298.046.728.045 1.366.045 4.922v3.332l.004-.007zm32.419-9.299c.061.026.127.037.193.034a.24.24 0 0 0 .125-.034c.039-.022.07-.055.09-.094a.22.22 0 0 0 .024-.128c.001-.041-.006-.082-.022-.119s-.04-.072-.071-.099a.28.28 0 0 0-.105-.061c-.039-.012-.08-.016-.121-.011-.012 0-.091 0-.114.022l.001.49zm-.228-.148l-.011-.332s-.04-.083-.143-.083c-.012 0-.04-.012-.04-.022s.023-.04.063-.04h.063c.023 0 .125.012.166.012l.268-.012c.216 0 .534.04.534.331 0 .119-.04.216-.228.364l.217.256c.165.193.216.205.248.205s.04.012.04.022-.012.034-.091.034c-.166 0-.256.012-.444-.228l-.177-.234h-.228v.108c0 .249.012.256.023.268.04.014.082.021.125.022.022 0 .04 0 .04.022s-.023.034-.052.034h-.051c-.023 0-.143-.012-.205-.012-.04 0-.166.012-.188.012h-.069c-.022 0-.051 0-.051-.022s.022-.034.051-.034c.114 0 .114 0 .125-.074s.012-.148.012-.341v-.256l.003-.001zm1.383.171a.96.96 0 0 0-.305-.624.96.96 0 0 0-.648-.253c-.239 0-.471.09-.647.253s-.286.385-.306.624a.96.96 0 0 0 .303.631c.176.165.409.256.65.256s.474-.091.651-.256.285-.39.302-.631zm-2.116.012c-.023-.235.026-.472.14-.68s.289-.375.5-.481a1.17 1.17 0 0 1 1.313.179c.176.159.299.367.353.597a1.17 1.17 0 0 1-.046.692 1.18 1.18 0 0 1-.431.544 1.17 1.17 0 0 1-.662.206c-.147.011-.295-.008-.434-.056a1.08 1.08 0 0 1-.377-.223c-.109-.099-.197-.219-.258-.353s-.095-.279-.098-.426z" fill="#000"/></svg>