<svg class="icon icon--heart-inactive" role="img" aria-label="Icon for heart-inactive" width="20" height="18" aria-hidden="true" focusable="false" viewBox="0 0 20 18" fill="none" xmlns="http://www.w3.org/2000/svg">
    <desc>Icon add to favorite</desc>
    <path fill-rule="evenodd" clip-rule="evenodd" d="M0.19043 6.21631C0.19043 3.19946 2.49481 0.981445 5.34517 0.981445C7.40304 0.981445 9.17491 2.20214 10.0036 3.96089C10.8338 2.20358 12.5945 0.981445 14.6547 0.981445C17.5038 0.981445 19.8094 3.1809 19.8094 6.21631C19.8094 7.7165 19.1925 9.12669 18.3117 10.3787C17.4298 11.6322 16.2607 12.7599 15.0982 13.7063C12.7733 15.5992 10.4098 16.819 10.2266 16.9122L9.99992 17.0275L9.77325 16.9122C9.58999 16.819 7.22652 15.5992 4.90161 13.7063C3.73912 12.7599 2.57002 11.6322 1.68815 10.3787C0.807304 9.12669 0.19043 7.7165 0.19043 6.21631ZM5.34517 1.98145C3.04633 1.98145 1.19043 3.75251 1.19043 6.21631C1.19043 7.4391 1.69462 8.64999 2.50602 9.80333C3.31639 10.9552 4.41073 12.0172 5.53298 12.9309C7.42223 14.469 9.34456 15.5501 9.99991 15.9017C10.6553 15.5501 12.5776 14.469 14.4669 12.9309C15.5891 12.0172 16.6834 10.9552 17.4938 9.80333C18.3052 8.64999 18.8094 7.4391 18.8094 6.21631C18.8094 3.73638 16.9547 1.98145 14.6547 1.98145C12.4268 1.98145 10.6066 3.77186 10.4994 6.03188L9.50033 6.0285C9.40862 3.77417 7.5759 1.98145 5.34517 1.98145Z" fill="currentColor"/>
  </svg>