<svg xmlns:xlink="http://www.w3.org/1999/xlink" class="icon icon--info" role="img" ariaLabel="Icon info" width="16" height="16" focusable="false" viewBox="0 0 16 16" fill="none" xmlns="http://www.w3.org/2000/svg"><desc fill="none">Icon info</desc><circle cx="7.5" cy="8" r="7" stroke="#222222" fill="none"></circle><path d="M8.50237 5.96851C8.67139 5.7967 8.7555 5.58774 8.7555 5.34292C8.7555 5.09854 8.67139 4.88914 8.50237 4.71514C8.33375 4.54159 8.13045 4.45459 7.89286 4.45459C7.65448 4.45459 7.45038 4.54115 7.28017 4.71514C7.10995 4.88914 7.02464 5.09854 7.02464 5.34292C7.02464 5.58774 7.10995 5.7967 7.28017 5.96851C7.45078 6.14119 7.65448 6.22732 7.89286 6.22732C8.13045 6.22732 8.33375 6.14119 8.50237 5.96851Z" fill="#222222"></path><path d="M8.06318 11.4498C8.21425 11.3859 8.41718 11.2932 8.67092 11.1712C8.67092 11.1712 8.64134 10.8041 8.54422 10.8367C8.44711 10.8693 8.35974 10.8858 8.28282 10.8858C8.11922 10.8858 8.00401 10.8532 7.93718 10.7876C7.8707 10.722 7.83763 10.5988 7.83763 10.418C7.83763 10.3464 7.84772 10.2397 7.86861 10.1C7.8888 9.95945 7.91212 9.83455 7.93788 9.72531L8.25393 8.36451C8.28491 8.23961 8.30614 8.10243 8.31763 7.95255C8.32911 7.80309 8.33468 7.69851 8.33468 7.63923C8.33468 7.35217 8.25184 7.1193 8.0865 6.93978C7.92117 6.76026 7.68552 6.6705 7.38026 6.6705C7.2104 6.6705 7.03079 6.70733 6.84074 6.78058C6.65069 6.85383 6.45194 6.9419 6.24414 7.04478C6.24414 7.04478 6.29496 7.40806 6.38128 7.37715C6.46726 7.34624 6.55149 7.33015 6.63364 7.33015C6.80106 7.33015 6.91384 7.36487 6.97301 7.43346C7.03218 7.50205 7.06177 7.62399 7.06177 7.79843C7.06177 7.89496 7.05237 8.00208 7.03288 8.11852C7.01374 8.2358 6.98972 8.35986 6.96152 8.49069L6.64408 9.85657C6.61589 10.0001 6.59535 10.1288 6.58247 10.2427C6.56959 10.3566 6.56333 10.4684 6.56333 10.5772C6.56333 10.8579 6.6486 11.0895 6.81916 11.272C6.98972 11.454 7.22885 11.5455 7.5362 11.5455C7.73634 11.5455 7.91212 11.5137 8.06318 11.4498Z" fill="#222222"></path></svg>