<svg width="24" height="24" viewBox="0 0 24 24" fill="none" xmlns="http://www.w3.org/2000/svg">
<g id="Frame">
<g id="SVGRepo_iconCarrier">
<path id="Vector" d="M13.6984 11.0805C13.9852 11.3968 14.2427 11.8116 14.1338 11.9204C14.0249 12.0293 13.6896 11.8322 13.4322 11.5748C13.1747 11.3173 12.5628 14.0461 12.5025 14.1843C12.4583 14.2888 11.7449 15.1052 11.3713 15.8833C11.2462 16.1422 11.2654 16.9248 11.2183 16.9719C11.03 17.1602 10.7931 17.1396 10.2798 16.685C9.7664 16.2305 9.49869 18.9357 10.1121 19.3637C11.1594 20.0948 13.2542 23.0001 16.0226 23.0001C19.225 23.0001 22.189 19.6594 22.189 17.2087C22.189 14.758 21.4697 13.8284 21.5168 11.7733C21.5565 10.0346 22.8216 9.20351 22.8216 8.33413C22.8216 7.60304 21.7345 7.42505 21.3785 7.42505C20.746 7.42505 19.1249 8.23558 19.1249 10.37C19.1249 11.1997 18.8881 11.9513 18.0379 11.9513C17.1876 11.9513 16.2388 10.7848 15.6666 9.87575" fill="url(#paint0_linear_121_14103)"/>
<path id="Vector_2" d="M22.8201 8.33276C22.8201 7.93559 22.4979 7.7017 22.1478 7.5708C22.5685 8.96529 20.4341 9.02562 20.4341 13.7799C20.4341 18.5342 17.6671 19.9169 16.5198 20.1538C15.3739 20.3906 13.3527 20.4597 11.8155 18.5724C11.3433 17.9929 10.7034 17.3633 9.99145 16.769C9.68991 17.2721 9.62663 19.0255 10.1091 19.3638C11.1565 20.0949 13.2512 23.0002 16.0196 23.0002C19.222 23.0002 22.1861 19.6595 22.1861 17.2088C22.1861 14.7581 21.4668 13.8284 21.5138 11.7735C21.555 10.0333 22.8201 9.20214 22.8201 8.33276Z" fill="url(#paint1_linear_121_14103)"/>
<path id="Vector_3" d="M10.2783 16.6838C9.76488 16.2293 8.54839 14.9348 7.75845 14.3023C6.96851 13.6697 6.27568 13.6771 5.802 14.3758C5.32834 15.0746 6.71108 16.2984 7.02736 16.6147C7.51133 17.0987 9.49865 18.9345 10.1106 19.3625" fill="url(#paint2_linear_121_14103)"/>
<path id="Vector_4" d="M12.5025 14.183C12.4436 14.3213 12.0391 14.4169 11.2374 13.5446C10.624 12.8783 8.98381 10.9615 8.01591 10.0922C7.04798 9.22279 6.29631 8.8668 5.66377 9.32134C5.03124 9.77588 5.39015 10.7232 6.09916 11.5161C6.97442 12.4943 7.98058 13.4931 8.94559 14.4507C9.70019 15.1995 11.4066 16.7838 11.2183 16.9706" fill="url(#paint3_linear_121_14103)"/>
<path id="Vector_5" d="M15.6651 9.87448C15.0914 8.9654 12.7393 6.03957 12.1671 5.20993C11.5934 4.38029 10.8226 4.38029 10.2886 4.75539C9.75462 5.13049 9.59722 5.88221 10.7976 7.47824C11.5551 8.48587 12.1862 9.41114 13.6984 11.0807L15.4577 10.9586L15.6651 9.87448Z" fill="url(#paint4_linear_121_14103)"/>
<path id="Vector_6" d="M13.4307 11.5749C13.1733 11.3175 10.9006 8.62408 10.3872 8.046C9.42369 6.96332 8.20276 4.64648 6.74498 5.67914C5.97859 6.22192 6.39343 7.00894 6.61113 7.32519C6.82886 7.64147 9.65466 10.9027 9.9312 11.1792C10.2078 11.4558 12.5599 14.0447 12.501 14.183" fill="url(#paint5_linear_121_14103)"/>
<path id="Vector_7" d="M8.9441 14.4506C9.65604 15.1567 11.2138 16.6056 11.23 16.9248C11.4551 16.5733 11.0432 15.5318 10.6093 15.1655C8.09827 13.0502 5.67256 9.64192 5.36367 9.74343C5.23129 10.2391 5.56665 10.9202 6.09771 11.5145C6.97293 12.4942 7.97913 13.4915 8.9441 14.4506Z" fill="url(#paint6_linear_121_14103)"/>
<path id="Vector_8" d="M13.6984 11.0806C13.9735 11.3851 14.2206 11.7793 14.1426 11.9058C15.0591 11.1688 13.1203 9.00205 12.0214 7.7002C11.1712 6.69256 10.9402 5.41278 10.3313 4.72583C10.3165 4.73466 10.3018 4.74494 10.2886 4.75526C9.75462 5.13036 9.59722 5.88203 10.7976 7.47806C11.5551 8.48426 12.1862 9.41097 13.6984 11.0806Z" fill="url(#paint7_linear_121_14103)"/>
<path id="Vector_9" d="M9.93262 11.1791C10.2092 11.4557 12.5613 14.0447 12.5025 14.1829C13.2291 13.2047 10.4122 10.3289 9.04856 8.87556C7.86585 7.61636 7.66287 6.5131 6.50959 5.8938C6.08007 6.41159 6.42135 7.04856 6.61258 7.32363C6.82879 7.64136 9.65607 10.9026 9.93262 11.1791Z" fill="url(#paint8_linear_121_14103)"/>
<path id="Vector_10" d="M12.4495 14.2421C12.3672 14.2921 12.198 14.298 11.9361 14.145C12.1303 14.3039 12.3112 14.3627 12.4495 14.2421Z" fill="url(#paint9_linear_121_14103)"/>
<path id="Vector_11" d="M7.37308 19.4314C7.35541 19.4314 7.33778 19.4284 7.32159 19.424C5.51814 18.8738 3.56316 16.9012 3.13953 15.2037C3.11598 15.1081 3.17335 15.0125 3.26898 14.9874C3.36458 14.9639 3.46021 15.0213 3.4852 15.1169C3.87649 16.6821 5.75498 18.5723 7.42602 19.0827C7.52017 19.1122 7.57314 19.2107 7.54372 19.3048C7.52017 19.3814 7.44957 19.4314 7.37308 19.4314Z" fill="#955500"/>
<path id="Vector_12" d="M8.23362 21.6702C8.22035 21.6702 8.20711 21.6688 8.1924 21.6658C6.69936 21.3187 4.96504 20.2036 3.43225 18.6061C1.99947 17.113 1.07275 15.5244 1.01244 14.4608C1.00655 14.3623 1.08157 14.2784 1.18013 14.2725C1.27722 14.2667 1.36253 14.3417 1.36842 14.4402C1.42285 15.4082 2.33339 16.9468 3.68965 18.359C5.17538 19.9079 6.84497 20.9862 8.27332 21.3187C8.36895 21.3407 8.42924 21.4363 8.4057 21.532C8.38659 21.6143 8.3145 21.6702 8.23362 21.6702Z" fill="#955500"/>
<path id="Vector_13" d="M15.8829 6.09974C15.8034 6.09974 15.7313 6.04676 15.7108 5.96732C15.4607 5.01706 14.3236 3.65492 13.288 3.38573C13.1924 3.3607 13.1365 3.26363 13.16 3.16947C13.185 3.07388 13.2821 3.01651 13.3763 3.0415C14.5428 3.34307 15.7726 4.8126 16.0535 5.87613C16.0785 5.97176 16.0226 6.06883 15.927 6.09382C15.9123 6.09678 15.8976 6.09974 15.8829 6.09974Z" fill="#955500"/>
<path id="Vector_14" d="M18.1261 6.41606C18.0467 6.41606 17.9746 6.36312 17.954 6.2822C17.2862 3.65647 14.7943 1.60882 13.3704 1.35287C13.2733 1.33522 13.21 1.24254 13.2262 1.14693C13.2439 1.04984 13.3365 0.986586 13.4322 1.00277C14.9841 1.28226 17.5848 3.39168 18.2968 6.19393C18.3203 6.28956 18.2629 6.38663 18.1688 6.41018C18.1556 6.41314 18.1394 6.41606 18.1261 6.41606Z" fill="#955500"/>
<path id="Vector_15" d="M21.5462 7.7195C22.1493 7.61067 22.2567 7.6798 22.1479 7.56945C21.8537 7.45914 21.5389 7.42236 21.3771 7.42236C20.7445 7.42236 19.1235 8.23289 19.1235 10.3673C19.1235 11.197 18.8867 11.9487 18.0364 11.9487C17.701 11.9487 17.3509 11.7677 17.014 11.4912C18.5056 13.1431 19.6766 11.5868 19.8545 10.5203C20.0325 9.4553 19.7751 8.03871 21.5462 7.7195Z" fill="url(#paint10_radial_121_14103)"/>
<path id="Vector_16" d="M10.1061 4.91724C9.7369 5.335 9.74869 6.08375 10.7975 7.47828C11.5551 8.48591 12.1862 9.41115 13.6983 11.0807C13.9852 11.397 14.2426 11.8118 14.1337 11.9207C14.3868 10.1908 11.9258 8.49179 11.1255 7.18698C10.4901 6.15288 10.3636 5.54389 10.1061 4.91724Z" fill="url(#paint11_linear_121_14103)"/>
<path id="Vector_17" d="M9.93258 11.1793C10.2091 11.4559 12.5613 14.0448 12.5025 14.1831C13.0217 13.8124 12.6672 13.2358 11.8655 12.4341C10.2209 10.7895 7.9335 8.58149 7.01266 6.76188C6.92587 6.58976 6.76406 6.46326 6.57283 6.43824C6.07563 6.37351 6.44486 7.08253 6.61106 7.32377C6.82879 7.64154 9.65603 10.9028 9.93258 11.1793Z" fill="url(#paint12_linear_121_14103)"/>
<path id="Vector_18" d="M6.09766 11.5145C6.97292 12.4927 7.97908 13.4915 8.94405 14.4491C9.69869 15.1979 11.4051 16.7821 11.2168 16.969C12.2744 16.079 7.36125 12.8605 5.36362 9.74341C5.23272 10.2391 5.56664 10.9217 6.09766 11.5145Z" fill="url(#paint13_linear_121_14103)"/>
<path id="Vector_19" d="M11.0006 17.1484C11.1006 17.1087 11.1535 17.0616 11.1697 17.0116C10.9888 17.1513 10.7505 17.1013 10.2783 16.6835C9.76492 16.229 8.54839 14.9345 7.75849 14.302C7.4113 14.024 7.08326 13.8695 6.7832 13.843C7.21124 14.1108 7.01266 14.2078 7.96587 14.9389C8.47631 15.3302 10.3474 17.4058 11.0006 17.1484Z" fill="url(#paint14_radial_121_14103)"/>
<path id="Vector_20" d="M9.75465 12.4046C10.449 13.2489 11.8023 14.6449 12.4113 14.2595C12.2436 14.3168 11.8611 14.2242 11.2374 13.546C10.624 12.8797 8.98382 10.963 8.01592 10.0936C7.23186 9.38897 6.5905 9.0227 6.03888 9.1492C7.64375 9.67583 9.09856 11.6058 9.75465 12.4046Z" fill="url(#paint15_radial_121_14103)"/>
<path id="Vector_21" d="M10.5063 8.76815C11.6139 9.97289 13.2571 12.3618 14.0911 11.9441C13.9543 11.9867 13.6616 11.8043 13.4321 11.5748C13.1747 11.3174 10.902 8.62398 10.3886 8.04586C9.72078 7.29566 8.92936 5.9541 8.02176 5.5437C8.93672 6.26448 9.60899 7.79138 10.5063 8.76815Z" fill="url(#paint16_radial_121_14103)"/>
<path id="Vector_22" d="M17.0141 11.4939C16.4963 11.0703 16.0123 10.4259 15.6637 9.87433C15.09 8.96525 12.7378 6.03942 12.1656 5.20978C11.9906 4.95675 11.7979 4.78171 11.5993 4.66992C11.867 5.05238 12.0171 5.59959 12.6202 6.27771C13.5881 7.36478 14.8532 9.32124 15.2886 9.99347C15.724 10.6657 16.4257 12.0823 17.0141 11.4939Z" fill="url(#paint17_linear_121_14103)"/>
<path id="Vector_23" d="M20.1855 21.1393C19.8251 20.264 19.3 19.7315 18.5409 20.2317C16.4683 21.5968 14.0838 21.1349 11.0962 18.7195C8.43071 16.5644 7.05238 15.0228 5.75496 14.4653C5.44459 15.1744 6.72581 16.3114 7.02886 16.6145C7.51283 17.0984 9.50015 18.9343 10.1121 19.3623C11.1594 20.0934 13.2541 22.9986 16.0226 22.9986C17.5657 22.9986 19.0558 22.2205 20.1855 21.1393Z" fill="url(#paint18_linear_121_14103)"/>
<path id="Vector_24" d="M21.5153 11.772C21.555 10.0332 22.8201 9.20213 22.8201 8.33275C22.8201 8.07679 22.6862 7.88852 22.4979 7.75171C22.7289 8.42838 22.1787 9.03001 21.3565 10.0524C20.4665 11.1585 20.2694 12.8796 20.8828 14.5992C21.4962 16.3189 20.7254 18.6901 19.4794 19.4418C18.2335 20.1935 16.5801 23.4944 11.842 19.764C11.8405 19.7625 11.8405 19.7625 11.839 19.761C11.5493 19.4918 11.2639 19.255 10.9741 19.0755C8.97351 17.8354 7.8335 16.7219 6.97151 15.7849C6.80231 15.601 6.3463 14.8949 5.80499 15.1259C6.07566 15.7393 6.80675 16.3953 7.02592 16.6145C7.50989 17.0985 9.49721 18.9343 10.1092 19.3623C10.1886 19.4182 10.2754 19.4874 10.3666 19.5654C10.3901 19.586 10.4151 19.6065 10.4386 19.6286C10.4445 19.6345 10.4519 19.6404 10.4578 19.6463C10.4739 19.6595 10.4887 19.6742 10.5048 19.6889C10.5078 19.6919 10.5122 19.6948 10.5152 19.6992C11.1374 20.2641 11.9935 21.1982 13.0423 21.9293C13.0423 21.9293 13.0438 21.9293 13.0438 21.9307C13.1365 21.9955 13.2291 22.0572 13.3248 22.1175C13.3262 22.119 13.3277 22.119 13.3292 22.1205C13.4233 22.1808 13.5189 22.2382 13.616 22.2941C13.6175 22.2941 13.6175 22.2955 13.6189 22.2955C14.3442 22.7118 15.1488 23.0001 16.0182 23.0001C19.2206 23.0001 22.1846 19.6595 22.1846 17.2088C22.1846 14.7581 21.4682 13.827 21.5153 11.772Z" fill="url(#paint19_radial_121_14103)"/>
</g>
</g>
<defs>
<linearGradient id="paint0_linear_121_14103" x1="20.6313" y1="23.6326" x2="17.9926" y2="17.4504" gradientUnits="userSpaceOnUse">
<stop offset="0.00132565" stop-color="#BE8D68"/>
<stop offset="1" stop-color="#CD9870"/>
</linearGradient>
<linearGradient id="paint1_linear_121_14103" x1="22.5273" y1="20.9683" x2="16.9928" y2="14.3664" gradientUnits="userSpaceOnUse">
<stop offset="0.00132565" stop-color="#BE8D68"/>
<stop offset="1" stop-color="#CD9870"/>
</linearGradient>
<linearGradient id="paint2_linear_121_14103" x1="6.36327" y1="14.9378" x2="9.62467" y2="17.3394" gradientUnits="userSpaceOnUse">
<stop offset="0.00132565" stop-color="#BE8D68"/>
<stop offset="1" stop-color="#CD9870"/>
</linearGradient>
<linearGradient id="paint3_linear_121_14103" x1="5.17578" y1="8.58128" x2="10.898" y2="14.5704" gradientUnits="userSpaceOnUse">
<stop offset="0.00132565" stop-color="#BE8D68"/>
<stop offset="1" stop-color="#CD9870"/>
</linearGradient>
<linearGradient id="paint4_linear_121_14103" x1="11.3564" y1="5.75567" x2="14.6771" y2="10.9739" gradientUnits="userSpaceOnUse">
<stop offset="0.00132565" stop-color="#BE8D68"/>
<stop offset="1" stop-color="#CD9870"/>
</linearGradient>
<linearGradient id="paint5_linear_121_14103" x1="7.92865" y1="6.6225" x2="12.4353" y2="12.7104" gradientUnits="userSpaceOnUse">
<stop offset="0.00132565" stop-color="#BE8D68"/>
<stop offset="1" stop-color="#CD9870"/>
</linearGradient>
<linearGradient id="paint6_linear_121_14103" x1="9.56859" y1="12.1376" x2="7.677" y2="13.9196" gradientUnits="userSpaceOnUse">
<stop stop-color="#BE8D68" stop-opacity="0"/>
<stop offset="1" stop-color="#B37E53"/>
</linearGradient>
<linearGradient id="paint7_linear_121_14103" x1="13.2884" y1="7.357" x2="10.4421" y2="9.9266" gradientUnits="userSpaceOnUse">
<stop stop-color="#BE8D68" stop-opacity="0"/>
<stop offset="1" stop-color="#B37E53"/>
</linearGradient>
<linearGradient id="paint8_linear_121_14103" x1="10.6702" y1="9.18768" x2="6.75657" y2="12.0488" gradientUnits="userSpaceOnUse">
<stop stop-color="#BE8D68" stop-opacity="0"/>
<stop offset="1" stop-color="#B37E53"/>
</linearGradient>
<linearGradient id="paint9_linear_121_14103" x1="13.5857" y1="13.176" x2="9.67197" y2="16.0371" gradientUnits="userSpaceOnUse">
<stop stop-color="#BE8D68" stop-opacity="0"/>
<stop offset="1" stop-color="#B37E53"/>
</linearGradient>
<radialGradient id="paint10_radial_121_14103" cx="0" cy="0" r="1" gradientUnits="userSpaceOnUse" gradientTransform="translate(18.7195 8.53068) scale(4.69824 4.69824)">
<stop stop-color="#B37E53" stop-opacity="0"/>
<stop offset="1" stop-color="#B37E53"/>
</radialGradient>
<linearGradient id="paint11_linear_121_14103" x1="13.8092" y1="6.85255" x2="11.378" y2="9.1059" gradientUnits="userSpaceOnUse">
<stop offset="0.3072" stop-color="#B37E53" stop-opacity="0"/>
<stop offset="1" stop-color="#B37E53"/>
</linearGradient>
<linearGradient id="paint12_linear_121_14103" x1="11.9475" y1="8.07387" x2="8.74544" y2="10.9597" gradientUnits="userSpaceOnUse">
<stop offset="0.3072" stop-color="#B37E53" stop-opacity="0"/>
<stop offset="1" stop-color="#B37E53"/>
</linearGradient>
<linearGradient id="paint13_linear_121_14103" x1="10.8653" y1="11.195" x2="6.91214" y2="14.5157" gradientUnits="userSpaceOnUse">
<stop offset="0.3072" stop-color="#B37E53" stop-opacity="0"/>
<stop offset="1" stop-color="#B37E53"/>
</linearGradient>
<radialGradient id="paint14_radial_121_14103" cx="0" cy="0" r="1" gradientUnits="userSpaceOnUse" gradientTransform="translate(8.97612 15.5068) scale(1.94634)">
<stop stop-color="#B37E53" stop-opacity="0"/>
<stop offset="1" stop-color="#B37E53"/>
</radialGradient>
<radialGradient id="paint15_radial_121_14103" cx="0" cy="0" r="1" gradientUnits="userSpaceOnUse" gradientTransform="translate(9.22379 11.724) scale(2.90863)">
<stop stop-color="#B37E53" stop-opacity="0"/>
<stop offset="1" stop-color="#B37E53"/>
</radialGradient>
<radialGradient id="paint16_radial_121_14103" cx="0" cy="0" r="1" gradientUnits="userSpaceOnUse" gradientTransform="translate(11.0553 8.7679) scale(3.13113)">
<stop stop-color="#B37E53" stop-opacity="0"/>
<stop offset="1" stop-color="#B37E53"/>
</radialGradient>
<linearGradient id="paint17_linear_121_14103" x1="14.4037" y1="7.56574" x2="12.5457" y2="17.4883" gradientUnits="userSpaceOnUse">
<stop offset="0.3118" stop-color="#DEBA94" stop-opacity="0"/>
<stop offset="1" stop-color="#D2A374"/>
</linearGradient>
<linearGradient id="paint18_linear_121_14103" x1="12.1478" y1="18.5584" x2="10.1317" y2="20.4115" gradientUnits="userSpaceOnUse">
<stop offset="0.3118" stop-color="#B37E53" stop-opacity="0"/>
<stop offset="1" stop-color="#B37E53"/>
</linearGradient>
<radialGradient id="paint19_radial_121_14103" cx="0" cy="0" r="1" gradientUnits="userSpaceOnUse" gradientTransform="translate(13.8892 13.911) rotate(48.1444) scale(13.6144 12.3601)">
<stop offset="0.6147" stop-color="#B37E53" stop-opacity="0"/>
<stop offset="1" stop-color="#B37E53"/>
</radialGradient>
</defs>
</svg>
